<svg class="android" version="1.1" id="Layer_1" xmlns="http://www.w3.org/2000/svg" xmlns:xlink="http://www.w3.org/1999/xlink" x="0px" y="0px" viewBox="0 0 106 124" enable-background="new 0 0 106 124" xml:space="preserve">
  <g>
    <g>
      <g>
        <path d="M98.4,39.1c-4.2,0-7.6,3.4-7.6,7.7v29.8c0,4.2,3.4,7.7,7.6,7.7c4.2,0,7.6-3.4,7.6-7.7V46.7 C105.9,42.6,102.6,39.1,98.4,39.1z M7.9,39.1c-4.2,0-7.6,3.4-7.6,7.7v29.8c0,4.2,3.4,7.7,7.6,7.7s7.6-3.4,7.6-7.7V46.7 C15.3,42.6,12,39.1,7.9,39.1z"/> </g> <g> <path d="M19.9,39.4v54.5c0,3.3,2.6,5.9,5.9,5.9h6.7v16.6c0,4.2,3.4,7.7,7.6,7.7c4.2,0,7.6-3.4,7.6-7.7V99.7h11.7 v16.6c0,4.2,3.4,7.7,7.6,7.7c4.2,0,7.6-3.4,7.6-7.7V99.7H81c3.3,0,5.9-2.6,5.9-5.9V39.4H19.9z"/> </g> <g> <path d="M69,11.1l6.2-8.9C75.6,1.7,75.5,1,75,0.6c-0.5-0.3-1.2-0.2-1.5,0.4l-6.4,9.3c-4.2-1.7-8.9-2.6-13.8-2.6 c-5,0-9.6,0.9-13.8,2.6L33.1,1c-0.4-0.5-1.1-0.7-1.5-0.4c-0.5,0.3-0.6,1-0.2,1.6l6.2,8.9C27.7,15.7,20.9,24.4,20,34.5h66.8 C85.7,24.4,78.8,15.7,69,11.1z M39.1,25.3c-2.1,0-3.7-1.7-3.7-3.7c0-2.1,1.7-3.7,3.7-3.7c2.1,0,3.7,1.7,3.7,3.7 S41.1,25.3,39.1,25.3z M67.7,25.3c-2.1,0-3.7-1.7-3.7-3.7c0-2.1,1.7-3.7,3.7-3.7c2,0,3.7,1.7,3.7,3.7S69.7,25.3,67.7,25.3z"/>
      </g>
    </g>
  </g>
</svg>
