<svg xmlns="http://www.w3.org/2000/svg" xmlns:xlink="http://www.w3.org/1999/xlink" version="1.1" id="Layer_1" x="0px" y="0px" viewBox="0 0 176 60" enable-background="new 0 0 176 60" xml:space="preserve">
  <defs>
    <linearGradient id="SVGID_1_" gradientUnits="userSpaceOnUse" x1="18.984" y1="63.5198" x2="64.9242" y2="17.5795" gradientTransform="matrix(1 0 0 1 -1.9997 1.260884e-04)">
      <stop offset="0" style="stop-color:#58BBEA"/>
      <stop offset="0.1917" style="stop-color:#5DB3E4"/>
      <stop offset="0.4905" style="stop-color:#699DD4"/>
      <stop offset="0.8574" style="stop-color:#7D79BA"/>
      <stop offset="1" style="stop-color:#8669AE"/>
    </linearGradient>
    <linearGradient id="SVGID_2_" gradientUnits="userSpaceOnUse" x1="-1.4838" y1="43.0504" x2="43.3396" y2="-1.7731" gradientTransform="matrix(1 0 0 1 -1.9997 1.260884e-04)">
      <stop offset="0" style="stop-color:#ABCB37"/>
      <stop offset="0.2693" style="stop-color:#A9CB38"/>
      <stop offset="0.424" style="stop-color:#A0C93B"/>
      <stop offset="0.5496" style="stop-color:#92C741"/>
      <stop offset="0.6598" style="stop-color:#7EC449"/>
      <stop offset="0.7598" style="stop-color:#65C054"/>
      <stop offset="0.8524" style="stop-color:#45BB61"/>
      <stop offset="0.9376" style="stop-color:#20B570"/>
      <stop offset="1" style="stop-color:#00B07D"/>
    </linearGradient>
  </defs>

  <g>
    <g>
      <path fill="url(#SVGID_1_)" d="M52.041,9.579c-0.248-0.266-0.495-0.533-0.755-0.793c-0.259-0.259-0.526-0.506-0.793-0.754    l-0.756,0.754l-0.793,0.792l-2.511,2.507l-0.083,0.083l-1.465,1.463l-2.539,2.535l0,0l-1.549,1.546    c0.274,0.24,0.552,0.475,0.812,0.735c0.26,0.26,0.496,0.537,0.737,0.811c2.615,2.978,4.057,6.745,4.057,10.742    c0,4.363-1.702,8.466-4.794,11.552c-3.091,3.085-7.201,4.785-11.573,4.785c-4.004,0-7.778-1.44-10.761-4.05l-0.423,0.422    l-1.126,1.124c3.399,3.021,7.721,4.69,12.31,4.69c4.957,0,9.617-1.927,13.122-5.426C46.663,39.6,48.593,34.948,48.593,30    c0-4.581-1.672-8.895-4.698-12.288l2.539-2.535c3.699,4.068,5.723,9.289,5.723,14.822c0,5.898-2.301,11.443-6.479,15.613    c-4.178,4.171-9.734,6.468-15.642,6.468c-5.542,0-10.773-2.021-14.849-5.713l-1.549,1.546c4.49,4.105,10.27,6.354,16.398,6.354    c6.494,0,12.599-2.524,17.191-7.109c4.592-4.584,7.121-10.677,7.121-17.16c0-6.117-2.253-11.886-6.365-16.369l2.51-2.506h0    c10.097,10.895,9.849,27.956-0.755,38.541c-5.263,5.253-12.26,8.146-19.702,8.146c-7.076,0-13.746-2.62-18.909-7.392l-0.793,0.792    l-0.756,0.754C15.155,57.152,22.374,60,30.036,60c8.027,0,15.575-3.12,21.251-8.787C62.745,39.775,62.991,21.328,52.041,9.579z"/>
      <g>
        <path fill="url(#SVGID_2_)" d="M46.35,12.169l0.083-0.083c-4.49-4.105-10.27-6.354-16.397-6.354     c-6.494,0-12.599,2.524-17.191,7.108c-4.592,4.584-7.121,10.677-7.121,17.16c0,6.117,2.253,11.886,6.365,16.369l-2.51,2.506     C-0.518,37.979-0.27,20.918,10.334,10.333c5.263-5.253,12.26-8.146,19.702-8.146c7.076,0,13.746,2.62,18.909,7.392l-2.511,2.507     l2.511-2.507l0.793-0.792l0.756-0.754C44.916,2.848,37.697,0,30.036,0C22.008,0,14.461,3.12,8.785,8.787     C-2.673,20.225-2.92,38.672,8.03,50.42c0.248,0.266,0.495,0.533,0.755,0.793c0.259,0.259,0.526,0.506,0.793,0.754l0.756-0.754     l0.793-0.792l2.511-2.507l1.549-1.546l2.539-2.535l1.126-1.124l0.423-0.422c-0.274-0.24-0.552-0.475-0.812-0.735     s-0.496-0.537-0.737-0.811c-2.615-2.978-4.057-6.746-4.057-10.741c0-4.364,1.702-8.467,4.794-11.553     c3.091-3.085,7.202-4.785,11.573-4.785c4.004,0,7.778,1.44,10.761,4.05l1.549-1.546c-3.399-3.021-7.721-4.691-12.31-4.691     c-4.957,0-9.617,1.927-13.122,5.426c-3.505,3.499-5.435,8.151-5.435,13.098c0,4.581,1.672,8.895,4.699,12.288l-2.539,2.535     C9.939,40.754,7.915,35.533,7.915,30c0-5.899,2.301-11.443,6.479-15.614c4.178-4.171,9.733-6.468,15.642-6.468     c5.542,0,10.773,2.021,14.848,5.714l-2.539,2.535l0,0l2.539-2.535L46.35,12.169z"/>
      </g>
    </g>
    <g style="">
      <path fill="#FFFFFF" d="M84.759,21.485c2.922,0,4.66,1.154,6.084,2.846c0.135,0.161,0.378,0.176,0.536,0.038l0.641-0.562    c0.154-0.135,0.171-0.368,0.041-0.527c-1.59-1.943-3.965-3.412-7.302-3.412c-5.942,0-9.796,4.553-9.796,10.132    c0,5.581,3.854,10.132,9.796,10.132c3.338,0,5.712-1.467,7.302-3.41c0.13-0.159,0.114-0.391-0.041-0.526l-0.642-0.564    c-0.158-0.139-0.401-0.123-0.537,0.037c-1.424,1.691-3.162,2.847-6.084,2.847c-5.089,0-8.031-4.052-8.031-8.517    C76.728,25.537,79.669,21.485,84.759,21.485z" fill="#4E4E50"/>
      <path fill="#FFFFFF" d="M134.021,21.485c2.922,0,4.66,1.154,6.084,2.846c0.135,0.161,0.378,0.176,0.536,0.038l0.641-0.562    c0.154-0.135,0.171-0.368,0.041-0.527c-1.59-1.943-3.965-3.412-7.302-3.412c-5.942,0-9.796,4.553-9.796,10.132    c0,5.581,3.854,10.132,9.796,10.132c3.338,0,5.712-1.467,7.302-3.41c0.13-0.159,0.114-0.391-0.041-0.526l-0.642-0.564    c-0.158-0.139-0.401-0.123-0.537,0.037c-1.424,1.691-3.162,2.847-6.084,2.847c-5.089,0-8.031-4.052-8.031-8.517    C125.991,25.537,128.932,21.485,134.021,21.485z"/>
      <path fill="#FFFFFF" d="M97.316,19.987c-0.209,0-0.378,0.169-0.378,0.378v0.502l0,18.265c0,0.001,0,0.001,0,0.002h0v0.502    c0,0.209,0.169,0.378,0.378,0.378l1.008,0c0.209,0,0.378-0.169,0.378-0.378v-0.502h0c0-0.001,0-0.001,0-0.002l0-18.265v-0.502    c0-0.209-0.169-0.378-0.378-0.378L97.316,19.987z"/>
      <path fill="#FFFFFF" d="M105.235,39.132c0,0.001,0,0.001,0,0.002h0v0.502c0,0.209,0.169,0.378,0.378,0.378h1.008    c0.209,0,0.378-0.169,0.378-0.378v-0.492c0-0.004,0.001-0.008,0.001-0.012v-8.045l7.266,0l4.148,8.427    c0.01,0.019,0.021,0.035,0.031,0.053l0.075,0.151c0.09,0.182,0.276,0.296,0.479,0.296l1.12,0c0.218,0,0.36-0.228,0.265-0.423    l-0.407-0.833c-0.001-0.003-0.002-0.005-0.004-0.008l-0.139-0.283l-0.001-0.001l0,0l-3.686-7.527    c2.884-0.527,4.443-2.614,4.443-5.285c0-3.113-2.148-5.433-6.032-5.433l-8.947,0c-0.209,0-0.378,0.169-0.378,0.378L105.235,39.132    z M107.001,29.501l0-7.694l7.914,0c2.442,0,3.913,1.615,3.913,3.847s-1.471,3.847-3.913,3.847L107.001,29.501z"/>
      <path fill="#FFFFFF" d="M158.35,38.193l-10.532,0l0-17.326c0-0.004-0.001-0.008-0.001-0.012v-0.491    c0-0.209-0.169-0.378-0.378-0.378l-1.008,0c-0.209,0-0.378,0.169-0.378,0.378v0.502v18.031v0.502c0,0.209,0.169,0.378,0.378,0.378    h0.504h0.882l10.533,0h0.415c0.209,0,0.378-0.169,0.378-0.378v-0.831c0-0.209-0.169-0.378-0.378-0.378H158.35z"/>
      <path fill="#FFFFFF" d="M162.967,38.899v0.502c0,0.209,0.169,0.378,0.378,0.378h0.504l0.882,0l10.474,0c0,0,0.001,0,0.001,0v0    h0.415c0.209,0,0.378-0.169,0.378-0.378v-0.414v0v0v-0.416c0-0.209-0.169-0.378-0.378-0.378h-0.415v0c0,0-0.001,0-0.001,0    l-10.473,0V30.47l6.061,0c0.001,0,0.002,0,0.002,0l0.412,0c0.209,0,0.378-0.169,0.378-0.378v-0.83    c0-0.209-0.169-0.378-0.378-0.378h-0.415l0,0l-6.061,0v-7.077l10.444,0c0.01,0,0.02-0.003,0.03-0.003v0.003h0.415    c0.209,0,0.378-0.169,0.378-0.378v-0.831c0-0.209-0.169-0.378-0.378-0.378h-0.415v0.003c-0.01,0-0.02-0.003-0.03-0.003l-11.831,0    c-0.209,0-0.378,0.169-0.378,0.378L162.967,38.899z"/>
    </g>
  </g>
</svg>
