<svg version="1.1" xmlns="http://www.w3.org/2000/svg" xmlns:xlink="http://www.w3.org/1999/xlink" x="0px" y="0px" viewBox="0 0 100 100" enable-background="new 0 0 100 100" xml:space="preserve">
  <g>
    <path d="M98.523,3.495l-2.017-2.017c-1.969-1.97-5.162-1.97-7.132,0L50,40.852L10.625,1.479c-1.969-1.97-5.162-1.97-7.132,0 L1.477,3.495c-1.969,1.969-1.969,5.163,0,7.132L40.851,50L1.477,89.374c-1.969,1.969-1.969,5.163,0,7.132l2.017,2.017 c1.97,1.969,5.162,1.969,7.132,0L50,59.149l39.375,39.373c1.969,1.969,5.162,1.969,7.132,0l2.017-2.017 c1.969-1.969,1.969-5.163,0-7.132L59.149,50l39.374-39.373C100.492,8.658,100.492,5.464,98.523,3.495z"/>
  </g>
</svg>
