<svg xmlns="http://www.w3.org/2000/svg" xmlns:xlink="http://www.w3.org/1999/xlink" preserveAspectRatio="xMidYMid" viewBox="0 0 38 38">
  <path d="M38.000,-0.000 C38.000,-0.000 31.682,-0.000 31.682,-0.000 C31.682,-0.000 31.682,0.001 31.682,0.001 C31.677,0.001 31.672,-0.000 31.667,-0.000 C31.667,-0.000 8.444,-0.000 8.444,-0.000 C8.444,-0.000 6.334,-0.000 6.334,-0.000 C6.334,-0.000 0.000,-0.000 0.000,-0.000 C0.000,-0.000 0.000,6.334 0.000,6.334 C0.000,6.334 0.000,8.444 0.000,8.444 C0.000,8.444 0.000,29.556 0.000,29.556 C0.000,29.556 0.000,31.666 0.000,31.666 C0.000,31.666 0.000,38.000 0.000,38.000 C0.000,38.000 6.334,38.000 6.334,38.000 C6.334,38.000 8.444,38.000 8.444,38.000 C8.444,38.000 19.000,38.000 19.000,38.000 C19.000,38.000 19.000,23.644 19.000,23.644 C19.000,23.644 14.356,23.644 14.356,23.644 C14.356,23.644 14.356,17.311 14.356,17.311 C14.356,17.311 19.000,17.311 19.000,17.311 C19.000,17.311 19.000,14.844 19.000,14.844 C19.000,10.588 22.196,6.756 26.125,6.756 C26.125,6.756 31.244,6.756 31.244,6.756 C31.244,6.756 31.244,13.089 31.244,13.089 C31.244,13.089 26.125,13.089 26.125,13.089 C25.565,13.089 24.911,13.769 24.911,14.788 C24.911,14.788 24.911,17.311 24.911,17.311 C24.911,17.311 31.244,17.311 31.244,17.311 C31.244,17.311 31.244,23.644 31.244,23.644 C31.244,23.644 24.911,23.644 24.911,23.644 C24.911,23.644 24.911,38.000 24.911,38.000 C24.911,38.000 29.556,38.000 29.556,38.000 C29.556,38.000 31.667,38.000 31.667,38.000 C31.667,38.000 38.000,38.000 38.000,38.000 C38.000,38.000 38.000,31.666 38.000,31.666 C38.000,31.666 38.000,29.556 38.000,29.556 C38.000,29.556 38.000,6.334 38.000,6.334 C38.000,6.329 37.999,6.323 37.999,6.318 C37.999,6.318 38.000,6.318 38.000,6.318 C38.000,6.318 38.000,-0.000 38.000,-0.000 Z" fill-rule="evenodd"/>
</svg>
