<svg id="6ec39589-3321-43e8-95d5-e350e8c7bf9c" data-name="Layer 1" xmlns="http://www.w3.org/2000/svg" viewBox="0 0 65.62 65.62">
  <path d="M59,0H6.57A6.58,6.58,0,0,0,0,6.57V59a6.58,6.58,0,0,0,6.57,6.57H59A6.58,6.58,0,0,0,65.62,59V6.57A6.58,6.58,0,0,0,59,0h0ZM32.81,19.69A13.12,13.12,0,1,1,19.69,32.81h0A13.15,13.15,0,0,1,32.81,19.69h0ZM8.2,59a1.55,1.55,0,0,1-1.63-1.63V29.52h6.89a11,11,0,0,0-.34,3.29,19.69,19.69,0,1,0,39.38,0,11,11,0,0,0-.34-3.29h6.89v27.9A1.55,1.55,0,0,1,57.58,59H8.2ZM59,14.77a1.55,1.55,0,0,1-1.44,1.65h-6.8a1.55,1.55,0,0,1-1.63-1.63V8.2a1.55,1.55,0,0,1,1.47-1.63h6.73A1.55,1.55,0,0,1,59,8.2v6.57h0Z"/>
</svg>
