<svg class="ios" version="1.1" id="Layer_1" xmlns="http://www.w3.org/2000/svg" xmlns:xlink="http://www.w3.org/1999/xlink" x="0px" y="0px" viewBox="0 0 90 110" enable-background="new 0 0 90 110" xml:space="preserve">
  <g>
    <g>
      <path d="M74.7,58.3c-0.1-13.6,11.1-20.2,11.6-20.5C80,28.6,70.1,27.3,66.7,27.2c-8.3-0.9-16.3,5-20.5,5 c-4.3,0-10.8-4.9-17.8-4.7c-9,0.1-17.4,5.4-22,13.4C-3.2,57.4,3.9,81.6,13,95c4.6,6.5,9.9,13.8,16.9,13.6 c6.8-0.3,9.4-4.4,17.6-4.4c8.2,0,10.6,4.4,17.7,4.2c7.3-0.1,12-6.6,16.4-13.2c5.3-7.5,7.4-14.9,7.5-15.2 C88.9,79.9,74.9,74.6,74.7,58.3z"/>
      <path d="M61.3,18.4c3.7-4.6,6.2-10.9,5.5-17.2c-5.3,0.2-12,3.7-15.8,8.2c-3.4,4-6.4,10.5-5.6,16.6 C51.3,26.4,57.4,23,61.3,18.4z"/>
    </g>
  </g>
</svg>
