<svg xmlns="http://www.w3.org/2000/svg" xmlns:xlink="http://www.w3.org/1999/xlink" preserveAspectRatio="xMidYMid" viewBox="0 0 46 38">
  <path d="M14.627,38.000 C9.240,38.000 4.225,36.412 0.003,33.690 C0.750,33.779 1.509,33.824 2.279,33.824 C6.748,33.824 10.862,32.291 14.127,29.718 C9.952,29.640 6.429,26.867 5.215,23.055 C5.798,23.167 6.395,23.227 7.010,23.227 C7.880,23.227 8.723,23.110 9.524,22.891 C5.159,22.010 1.871,18.132 1.871,13.484 C1.871,13.444 1.871,13.403 1.872,13.363 C3.158,14.082 4.629,14.514 6.193,14.563 C3.633,12.843 1.949,9.907 1.949,6.578 C1.949,4.820 2.419,3.172 3.240,1.756 C7.946,7.560 14.975,11.379 22.903,11.779 C22.741,11.077 22.656,10.344 22.656,9.593 C22.656,4.295 26.928,-0.001 32.196,-0.001 C34.940,-0.001 37.419,1.165 39.160,3.029 C41.333,2.599 43.374,1.800 45.217,0.701 C44.505,2.941 42.993,4.821 41.023,6.009 C42.953,5.777 44.791,5.261 46.502,4.498 C45.223,6.422 43.606,8.111 41.742,9.464 C41.760,9.875 41.769,10.289 41.769,10.705 C41.769,23.382 32.174,38.000 14.627,38.000" fill-rule="evenodd"/>
</svg>
